<svg enable-background="new 0 0 278.4 70.7" viewBox="0 0 278.4 70.7" xmlns="http://www.w3.org/2000/svg"><g fill="#70abeb"><path d="m107.2 63c0 .6-.1 1.2-.1 1.9l2.5-4.5-.3-1.5 2.5-.4.9 6.3 1.1-3.9c.1-.4.1-.7.1-1s0-.6-.1-1l2.6-.5c.1.5.2 1 .1 1.5 0 .6-.2 1.3-.6 2.4l-2.1 5.7h-3.1l-.7-4.2-2.4 4.2h-3c.1-3.9 0-6.4-.3-9l2.6-.4c.3 1.3.4 2.8.3 4.4z"/><path d="m123.4 60.8c-1.2.6-1.7.9-2.8 1.6l-1.2 5.5h-2.7l1.9-9.1 2.4-.4-.1 1.3c.9-.5 1.7-.9 2.5-1.3z"/><path d="m125 58.8 2.8-.4-2 9.5h-2.7zm.9-4.1 2.8-.4-.6 2.9-2.8.4z"/><path d="m132.8 60.7-1 4.6v.2c0 .1.1.2.3.2.5 0 1-.2 1.5-.4l.5 1.9c-.8.4-1.9.8-3 .8-1.4 0-2.1-.7-2-1.8 0-.1 0-.3.1-.4l1.1-5.2h-1.4l.5-2.2h1.4l.5-2.2 2.8-.4-.5 2.6h2.2l-.6 2.2h-2.4z"/><path d="m136 61.9c.5-2.1 1.5-3.5 4.4-3.5 1.8 0 3.1.8 3 2.3-.1 1.8-1 2.7-3.3 3.3-1.1.3-1.2.3-2 .6l-.1.6c-.1.3 0 .7.5.7 1 0 2.4-.5 3.7-1l.4 1.9c-1.2.7-3 1.3-4.6 1.3-1.9 0-2.7-.8-2.7-2.4 0-.3.1-.7.2-1.1zm4.9-.9c0-.3-.3-.5-.8-.5-1 0-1.3.6-1.4 1.3l-.1.7c.5-.1.7-.2 1.2-.3.7-.3 1.1-.6 1.1-1.2z"/><path d="m150.4 54.8 2.8-.4-2.8 13.5h-2.7z"/><path d="m153.5 61.9c.5-2.1 1.5-3.5 4.4-3.5 1.8 0 3.1.8 3 2.3-.1 1.8-1 2.7-3.3 3.3-1.1.3-1.2.3-2 .6l-.1.6c-.1.3 0 .7.5.7 1 0 2.4-.5 3.7-1l.4 1.9c-1.2.7-3 1.3-4.6 1.3-1.9 0-2.7-.8-2.7-2.4 0-.3.1-.7.2-1.1zm4.9-.9c0-.3-.3-.5-.8-.5-1 0-1.3.6-1.4 1.3l-.1.7c.5-.1.7-.2 1.2-.3.7-.3 1.1-.6 1.1-1.2z"/><path d="m161.2 67.5.6-2c.7.2 1.5.5 2.5.5.9 0 1-.3 1.1-.7s-.2-.6-1.2-1.2c-1.9-1-2-1.7-1.7-3.1.4-2 1-2.5 3.6-2.5.9 0 2 .2 2.8.4l-.5 2c-.7-.2-1.7-.3-2.3-.3-.8 0-.9.1-1 .6-.1.4 0 .5.9 1 2.1 1.1 2.4 1.5 2.1 3-.5 2.1-1.1 2.9-3.9 2.9-1 0-2.2-.3-3-.6z"/><path d="m168.9 67.5.6-2c.7.2 1.5.5 2.5.5.9 0 1-.3 1.1-.7s-.2-.6-1.2-1.2c-1.9-1-2-1.7-1.7-3.1.4-2 1-2.5 3.6-2.5.9 0 2 .2 2.8.4l-.5 2c-.7-.2-1.7-.3-2.3-.3-.8 0-.9.1-1 .6-.1.4 0 .5.9 1 2.1 1.1 2.4 1.5 2.1 3-.5 2.1-1.1 2.9-3.9 2.9-1 0-2.2-.3-3-.6z"/><path d="m176.3 70 1.5-2.1h-1l.7-3.2h2.7l-.7 3.4-2.2 2.6z"/><path d="m191 67.9v-.8c-.7.6-1.7 1-3 1-2 0-2.5-1.2-2-3.3l.5-2.5c.5-2.2 1.1-3.9 5-3.9.3 0 .9 0 1.1.1l.8-3.7 2.8-.4-2.8 13.5zm-2.5-2.8c-.1.5 0 .7.5.7 1 0 1.7-.5 2.2-1l.9-4.1c-.3-.1-.7-.1-1-.1-1.4 0-1.7.7-1.9 1.6z"/><path d="m195.8 65c0-.2 0-.4.1-.7l.5-2.2c.5-2.4 1.7-3.8 5-3.8 2.5 0 3.6 1.4 3.5 3.1 0 .2 0 .4-.1.7l-.5 2.2c-.5 2.2-1.6 3.8-5 3.8-2.4 0-3.6-1.4-3.5-3.1zm6.3-3.3c0-.7-.4-1.1-1.3-1.1-1 0-1.6.5-1.8 1.4l-.5 2.3c0 .1 0 .3-.1.4 0 .7.4 1.1 1.3 1.1 1 0 1.6-.5 1.8-1.4l.5-2.3c.1-.2.1-.3.1-.4z"/><path d="m221.3 61.6c0-.1 0-.2 0-.3 0-.2-.1-.3-.4-.3-.5 0-1.7.5-2.5.9l-1.3 6h-2.7l1.3-6.3c0-.1 0-.2 0-.3 0-.2-.1-.3-.4-.3-.5 0-1.7.5-2.4.9l-1.3 6h-2.7l1.9-9.1 2.4-.4-.1 1c1.5-.7 2.6-1.1 3.7-1.1.9 0 1.4.4 1.6 1.1 1.4-.8 2.7-1.1 3.8-1.1 1.2 0 1.7.7 1.6 1.9 0 .3 0 .7-.1 1.1l-1.4 6.5h-2.3z"/><path d="m225.1 65c0-.2 0-.4.1-.7l.5-2.2c.5-2.4 1.7-3.8 5-3.8 2.5 0 3.6 1.4 3.5 3.1 0 .2 0 .4-.1.7l-.5 2.2c-.5 2.2-1.6 3.8-5 3.8-2.4 0-3.6-1.4-3.5-3.1zm6.3-3.3c0-.7-.4-1.1-1.3-1.1-1 0-1.6.5-1.8 1.4l-.5 2.3c0 .1 0 .3-.1.4 0 .7.4 1.1 1.3 1.1 1 0 1.6-.5 1.8-1.4l.5-2.3c.1-.2.1-.3.1-.4z"/><path d="m241.2 60.8c-1.2.6-1.7.9-2.8 1.6l-1.2 5.5h-2.7l1.9-9.1 2.4-.4-.1 1.3c.9-.5 1.7-.9 2.5-1.3z"/><path d="m241.9 61.9c.5-2.1 1.5-3.5 4.4-3.5 1.8 0 3.1.8 3 2.3-.1 1.8-1 2.7-3.3 3.3-1.1.3-1.2.3-2 .6l-.1.6c-.1.3 0 .7.5.7 1 0 2.4-.5 3.7-1l.4 1.9c-1.2.7-3 1.3-4.6 1.3-1.9 0-2.7-.8-2.7-2.4 0-.3.1-.7.2-1.1zm4.9-.9c0-.3-.3-.5-.8-.5-1 0-1.3.6-1.4 1.3l-.1.7c.5-.1.7-.2 1.2-.3.7-.3 1-.6 1.1-1.2z"/><path d="m250.4 64.7h2.7l-.7 3.2h-2.7z"/><path d="m3.3 13.4c-4.6 6.5-4 15.1-.5 22 0 .2.1.4.2.6 0 .1.1.2.2.3 0 .1.1.1.1.2.1.1.1.2.2.3l.3.6c.1.1.1.2.2.3.1.2.3.4.4.6.1.1.1.2.2.3.2.3.4.5.6.8s.1.1.1.1c.2.2.3.5.5.7.1.1.1.2.2.2.2.2.3.4.5.6l.2.2c.2.3.4.5.7.7.2.2.4.5.7.7l.2.2c.2.2.3.3.5.5l.2.2c.2.2.5.4.7.7s.1.1.1.1c.2.2.4.4.7.6.1.1.2.1.3.2.2.1.4.3.6.4.1.1.2.1.3.2.2.2.4.3.6.4l.2.2h.1c.2.1.4.3.6.4.1.1.2.1.3.2l.9.6c.1 0 .2.1.3.1.2.1.5.3.7.4.1.1.3.1.4.2.2.1.3.2.5.3 0 0 .1 0 .1.1.1 0 .1.1.2.1.3.1.5.3.8.4.1 0 .1 0 .2.1.3.1.6.3.9.4.1 0 .1.1.2.1.3.1.6.2.9.3h.1c.3.1.7.2 1 .3.1 0 .2.1.2.1.3.1.7.2 1 .3 22 4 28.4-13.2 28.4-13.2-5.4 7-14.9 8.8-24 6.8-.3-.1-.7-.2-1-.3-.1 0-.2 0-.2-.1-.3-.1-.7-.2-1-.3 0 0-.1 0-.1-.1-.3-.1-.6-.2-.9-.3-.1 0-.2-.1-.2-.1-.3-.1-.6-.3-.9-.4-.1 0-.1-.1-.2-.1-.3-.1-.5-.2-.8-.4-.1 0-.1-.1-.2-.1-.2-.1-.4-.2-.6-.3-.1-.1-.3-.1-.4-.2-.2-.1-.5-.3-.7-.4-.1-.1-.2-.1-.2-.1-.3-.2-.6-.4-.9-.6-.1-.1-.2-.1-.3-.2-.2-.1-.5-.3-.7-.4-.1-.1-.1-.1-.2-.2-.2-.1-.4-.3-.6-.5-.1-.1-.2-.1-.3-.2-.2-.1-.4-.3-.6-.4-.1-.1-.2-.1-.3-.2-.2-.2-.5-.4-.7-.6 0 0-.1 0-.1-.1-.2-.2-.5-.5-.7-.7-.1-.1-.1-.1-.2-.2-.2-.2-.4-.3-.5-.5-.1-.1-.1-.1-.2-.2-.2-.2-.4-.5-.7-.7-.2-.2-.4-.5-.7-.8-.1-.1-.1-.1-.2-.2-.2-.2-.3-.4-.5-.6-.1-.1-.1-.1-.2-.2-.3-.1-.5-.4-.7-.6-5-6.8-6.8-16.3-2.8-24"/><path d="m17.4 7.9c-3.3 4.8-3.1 11.1-.5 16.1.4.8.9 1.7 1.5 2.4.5.7 1 1.5 1.7 2.1.2.3.5.5.7.8l.2.2c.2.2.5.5.8.7.3.3.6.5.9.7l.2.2c.3.2.6.5.9.7.1.1.3.2.4.3.1 0 .1.1.2.1.2.1.5.3.7.4 0 0 .1 0 .1.1.2.1.4.2.6.3.1 0 .1.1.2.1.1.1.3.1.4.2h.1c.3.1.6.3.9.4.1 0 .1.1.2.1.2.1.5.2.7.3.1 0 .2.1.3.1.2.1.4.2.7.2.1 0 .2.1.3.1.3.1.6.2 1 .3 17 2.8 20.9-10.3 20.9-10.3-3.5 5.1-10.4 7.5-17.7 5.6-.3-.1-.6-.2-1-.3-.1 0-.2-.1-.3-.1-.2-.1-.5-.1-.7-.2-.1 0-.2-.1-.3-.1-.2-.1-.5-.2-.7-.3-.1 0-.1-.1-.2-.1-.3-.1-.6-.3-.9-.4-.1-.1-.3-.2-.4-.2s-.2-.1-.3-.1c-.2-.1-.4-.2-.6-.3 0 0-.1 0-.1-.1-.2-.1-.5-.3-.7-.4-.1 0-.1-.1-.2-.1-.1-.1-.3-.2-.4-.3-.3-.2-.6-.4-.9-.7-.1-.1-.1-.1-.2-.2-3.2-2.5-5.7-6-6.9-9.9-1.3-4.1-1-8.6 1.2-12.3"/><path d="m29.3 3.8c-1.9 2.9-2.1 6.4-.8 9.6 1.4 3.4 4.3 6 7.7 7.2.1.1.3.1.4.1s.1 0 .2.1c.2.1.4.1.6.2 9.4 1.8 11.9-4.8 12.6-5.8-2.2 3.2-6 4-10.6 2.9-.4-.1-.8-.2-1.1-.3-.4-.2-.9-.3-1.3-.5-.8-.4-1.6-.9-2.3-1.4-4.1-3.1-6.7-9.1-4-13.9"/></g><path d="m247 17.2.4 1.6c.1.4-.2.8-.6.8" fill="#ddd"/><path d="m217.4 14.5c-.1.4-.2 1-.3 1.3l-3.3 15.2 3.4-16z" fill="#ddd"/><path d="m120 24.7-1.8 6.4z" fill="#ddd"/><path d="m247.4 18.8-.9-4c-.7-2.9-2.8-4.2-7.5-4.2h-19.8c-.5 0-.9.2-1 .7l-7.5 35.6c-.1.5-.1.8-.1 1 .1.2.9.2 1.4.2h6.9c.5 0 1.3 0 1.5-.1.3-.1.4-.8.5-1.2l2.4-12.5 3-13.9c.1-.4.5-.8 1-.8h19.6c.3 0 .6-.4.5-.8" fill="#ddd"/><path d="m275.3 4.3c-.5 0-8.7 0-8.7 0-.5 0-1 .5-1.3.9l-15.3 22.4c-.3.4-.6.4-.7-.1l-1.1-4.9c-.1-.4-.6-.8-1-.8h-9.8c-.5 0-.7.4-.6.8l4.4 15.4c.1.4.1 1.2 0 1.6l-2.1 7.8c-.1.4.2.6.6.6h9.7c.5 0 .9-.1 1-.6l2.1-7.9c.1-.4.4-1 .7-1.4l24.9-33c.3-.4.2-.8-.2-.8z" fill="#ddd"/><path d="m173.1 10.6h-8.9c-.5 0-.9.2-1 .6l-2.9 13.7-2.9 13.1c-.1.4-.5.4-1 .4h-5.8c-5.8 0-5.1-3.6-3.9-9.1 0-.1 3.7-18.1 3.7-18.1.1-.4-.2-.6-.7-.6h-8.4c-.5 0-.9.2-1 .6l-3.4 18.1c-1.7 9.8-1.7 18.4 9.6 18.7h17.9c.5 0 .9-.2 1-.6l3.9-18.2 3.8-18.2s.2-.4 0-.4z" fill="#ddd"/><path d="m84.9 10.6h-9.5c-.5 0-.9.1-1 .6l-1.7 7.4c-.1.4.2.8.7.8h9.1c.5 0 .9-.4 1-.9l1.6-7.5s.2-.4-.2-.4z" fill="#ddd"/><path d="m72.8 21.8c-.5 0-.9.4-1 .8l-1.3 5.7-2.9 13.1s-1.5 6.9-1.7 7.4c0 0-1.3 5-4.3 4.8-1.4-.1-3-.4-3-.4-.9-.3-.9.6-1 1.1l-1.9 8.1c-.1.4.2.8.6.9 0 0 4.1.6 7 .6h.5c7.1 0 10.9-4.2 13.3-15.6l2.8-13.3 2.6-12.3c.1-.4-.2-.9-.6-.9" fill="#ddd"/><path d="m195.5 10.5c-16 0-19.8 9.9-21.9 19.6-2.1 10-1.9 17.9 14.6 17.9h.6 14.5c.4 0 .9-.4 1-.9l1.6-6.3c.1-.4-.2-.6-.7-.6h-14.9c-5.4 0-7.3-1.7-7.1-5.4 0-.4.5-1.5.9-1.5h22.9c1 0 1-.6 1-.6 2.5-10.4 2.6-22.2-12.5-22.2m4.2 15.7c0 .5-1.6.4-1.6.4l-12.4-.1c-.4 0-.6-.6-.6-1 0 0 0-.5.1-.6 1-3.3 3.8-5.2 8.4-5.2 5.1 0 6.2 2.5 6.2 5.4" fill="#ddd"/><path d="m126.5 37.7s4.5-10.9 5.5-17.1c1.4-8.4-2.8-20.6-19.1-20.6-16.1 0-23.1 11.6-25.8 24.3s.8 23.8 16.9 23.7h24.5c.5 0 .9-.4 1-.8l2.1-7.9c.1-.4-.2-.8-.6-.8h-2-2c-.4 0-.6-.3-.6-.6.1 0 .1-.1.1-.2m-8.4-6.6-1.8 6.3c-.1.4-.6.7-1.1.7h-9.5c-7.2 0-9-5.6-7.2-13.9 1.8-8.5 5.2-13.7 12.3-14.3 9.7-.7 11.7 6.1 9.3 14z" fill="#ddd"/></svg>